<svg width="291" height="103" viewBox="0 0 291 103" fill="none" xmlns="http://www.w3.org/2000/svg">
<g clip-path="url(#clip0_1_13)">
<path d="M0 61C26.5017 33.7291 51.0762 26.193 109 24" stroke="white" stroke-width="2"/>
<path d="M0 47C19.9371 18.992 38.4243 11.2522 82 9" stroke="white" stroke-width="2"/>
<path d="M291 56C271.063 84.008 252.576 91.7478 209 94" stroke="white" stroke-width="2"/>
<path d="M45.6361 54.345L43.5711 72.09L40.6311 73.07L40.1411 72.895L42.7661 60.4C42.9761 59.4433 43.1745 58.44 43.3611 57.39C43.5711 56.34 43.7461 55.325 43.8861 54.345C44.0261 53.365 44.0961 52.5133 44.0961 51.79C44.0961 51.2067 43.8395 50.7167 43.3261 50.32C42.8128 49.9 41.9028 49.655 40.5961 49.585V48.745L40.8761 48.465H48.7511C49.8945 51.6383 51.0961 54.7883 52.3561 57.915C53.6161 61.0183 55.0161 64.0983 56.5561 67.155C56.6028 67.2483 56.6728 67.295 56.7661 67.295C56.8361 67.295 56.9178 67.2483 57.0111 67.155C57.4311 66.4783 57.8861 65.7083 58.3761 64.845C58.8895 63.9817 59.3911 63.1183 59.8811 62.255C60.3945 61.3917 60.8611 60.5983 61.2811 59.875C61.7011 59.1283 62.0395 58.5333 62.2961 58.09C62.5528 57.6233 62.6811 57.39 62.6811 57.39C63.4511 55.9433 64.1861 54.4967 64.8861 53.05C65.5861 51.6033 66.1695 50.11 66.6361 48.57L72.3061 48.5L72.5161 48.92L71.8511 49.62C71.6878 49.7833 71.5828 50.0517 71.5361 50.425C71.5128 50.775 71.5011 51.3583 71.5011 52.175V57.285C71.5011 58.8483 71.5361 60.4 71.6061 61.94C71.6995 63.48 71.8161 65.02 71.9561 66.56C72.0495 67.4 72.1428 68.17 72.2361 68.87C72.3528 69.5467 72.5628 70.095 72.8661 70.515C73.1695 70.9117 73.6478 71.11 74.3011 71.11C74.6278 71.11 74.9778 71.0983 75.3511 71.075C75.7478 71.0283 76.0745 70.9933 76.3311 70.97L76.4711 71.915C76.3311 71.915 75.9695 71.9967 75.3861 72.16C74.8028 72.3233 74.1261 72.5217 73.3561 72.755C72.5861 72.965 71.8511 73.1517 71.1511 73.315C70.4511 73.4783 69.9261 73.56 69.5761 73.56C68.8995 73.56 68.3861 73.3617 68.0361 72.965C67.7095 72.5683 67.5461 72.1367 67.5461 71.67C67.5461 71.1567 67.5461 70.375 67.5461 69.325C67.5461 68.275 67.5345 67.085 67.5111 65.755C67.5111 64.425 67.4878 63.0717 67.4411 61.695C67.4178 60.3183 67.3711 59.0467 67.3011 57.88C67.2545 56.7133 67.1845 55.7683 67.0911 55.045C66.9978 54.3217 66.8811 53.96 66.7411 53.96C66.6945 53.96 66.5895 54.0883 66.4261 54.345C64.5361 57.4483 62.7628 60.54 61.1061 63.62C59.4728 66.6767 57.8161 69.815 56.1361 73.035H53.5461C52.4028 69.8383 51.2478 66.7117 50.0811 63.655C48.9145 60.575 47.6311 57.4833 46.2311 54.38C46.1611 54.2167 46.0561 54.135 45.9161 54.135C45.7295 54.135 45.6361 54.205 45.6361 54.345ZM80.2588 51.265C80.2588 50.635 80.4805 50.0983 80.9238 49.655C81.3905 49.1883 81.9388 48.955 82.5688 48.955C83.1988 48.955 83.7355 49.1883 84.1788 49.655C84.6455 50.0983 84.8788 50.635 84.8788 51.265C84.8788 51.895 84.6455 52.4433 84.1788 52.91C83.7355 53.3533 83.1988 53.575 82.5688 53.575C81.9388 53.575 81.3905 53.3533 80.9238 52.91C80.4805 52.4433 80.2588 51.895 80.2588 51.265ZM88.3438 68.835L88.9388 69.395V69.78C88.4955 70.3167 87.9821 70.8767 87.3988 71.46C86.8155 72.02 86.1855 72.4983 85.5088 72.895C84.8555 73.2683 84.1788 73.455 83.4788 73.455C83.0588 73.455 82.6621 73.3617 82.2888 73.175C81.9155 73.0117 81.6121 72.7783 81.3788 72.475C81.0755 72.055 80.8771 71.5417 80.7838 70.935C80.6905 70.3283 80.6555 69.4883 80.6788 68.415C80.7021 67.3183 80.7138 65.8833 80.7138 64.11V60.015C80.6905 59.6417 80.5971 59.2683 80.4338 58.895C80.2938 58.4983 79.9788 58.3 79.4888 58.3C79.1155 58.3 78.7188 58.4167 78.2988 58.65C77.9021 58.86 77.4938 59.1167 77.0738 59.42L76.5138 58.65C77.0505 58.2067 77.6338 57.7633 78.2638 57.32C78.9171 56.8767 79.5821 56.5033 80.2588 56.2C80.9355 55.8967 81.6121 55.745 82.2888 55.745C82.6388 55.745 82.9771 55.815 83.3038 55.955C83.6305 56.0717 83.8755 56.27 84.0388 56.55C84.1788 56.7833 84.2838 57.075 84.3538 57.425C84.4238 57.775 84.4588 58.4633 84.4588 59.49C84.4588 60.19 84.4355 60.9017 84.3888 61.625C84.3655 62.325 84.3538 63.025 84.3538 63.725C84.3538 65.1483 84.3421 66.3617 84.3188 67.365C84.3188 68.3683 84.4238 69.1383 84.6338 69.675C84.8438 70.2117 85.2521 70.48 85.8588 70.48C86.2788 70.48 86.7105 70.2933 87.1538 69.92C87.5971 69.5467 87.9938 69.185 88.3438 68.835ZM95.16 48.605L95.615 49.025L95.335 64.915C95.335 65.1483 95.3234 65.3933 95.3 65.65C95.3 65.9067 95.3 66.1633 95.3 66.42C95.3 67.6567 95.37 68.6133 95.51 69.29C95.6734 69.9433 96.0467 70.27 96.63 70.27C97.12 70.27 97.5867 70.1067 98.03 69.78C98.4734 69.43 98.87 69.0683 99.22 68.695H99.64L100.2 69.255C99.7567 69.8383 99.2317 70.445 98.625 71.075C98.0417 71.6817 97.4 72.195 96.7 72.615C96 73.035 95.265 73.245 94.495 73.245C93.4917 73.245 92.78 73.0117 92.36 72.545C91.9634 72.0783 91.7184 71.495 91.625 70.795C91.555 70.095 91.52 69.3833 91.52 68.66C91.52 67.33 91.5434 65.9883 91.59 64.635C91.6367 63.2817 91.66 61.8933 91.66 60.47C91.66 59.49 91.66 58.4983 91.66 57.495C91.66 56.4917 91.6484 55.5117 91.625 54.555C91.6017 54.0417 91.5784 53.4817 91.555 52.875C91.555 52.2683 91.52 51.8133 91.45 51.51C91.31 50.9033 90.9367 50.5533 90.33 50.46C89.7234 50.3667 89.0467 50.3083 88.3 50.285V49.48L88.72 49.2L95.16 48.605ZM106.439 48.605L106.894 49.025L106.614 64.915C106.614 65.1483 106.603 65.3933 106.579 65.65C106.579 65.9067 106.579 66.1633 106.579 66.42C106.579 67.6567 106.649 68.6133 106.789 69.29C106.953 69.9433 107.326 70.27 107.909 70.27C108.399 70.27 108.866 70.1067 109.309 69.78C109.753 69.43 110.149 69.0683 110.499 68.695H110.919L111.479 69.255C111.036 69.8383 110.511 70.445 109.904 71.075C109.321 71.6817 108.679 72.195 107.979 72.615C107.279 73.035 106.544 73.245 105.774 73.245C104.771 73.245 104.059 73.0117 103.639 72.545C103.243 72.0783 102.998 71.495 102.904 70.795C102.834 70.095 102.799 69.3833 102.799 68.66C102.799 67.33 102.823 65.9883 102.869 64.635C102.916 63.2817 102.939 61.8933 102.939 60.47C102.939 59.49 102.939 58.4983 102.939 57.495C102.939 56.4917 102.928 55.5117 102.904 54.555C102.881 54.0417 102.858 53.4817 102.834 52.875C102.834 52.2683 102.799 51.8133 102.729 51.51C102.589 50.9033 102.216 50.5533 101.609 50.46C101.003 50.3667 100.326 50.3083 99.5793 50.285V49.48L99.9993 49.2L106.439 48.605ZM127.064 69.325L127.589 69.465L127.974 70.13C127.204 70.69 126.375 71.2383 125.489 71.775C124.625 72.2883 123.727 72.7083 122.794 73.035C121.86 73.385 120.915 73.56 119.959 73.56C118.955 73.56 117.964 73.42 116.984 73.14C116.027 72.8833 115.199 72.4283 114.499 71.775C113.659 71.005 113.087 70.095 112.784 69.045C112.504 67.995 112.364 66.9333 112.364 65.86C112.364 64.5767 112.562 63.3283 112.959 62.115C113.355 60.9017 113.962 59.8167 114.779 58.86C115.595 57.88 116.61 57.11 117.824 56.55C119.06 55.9667 120.507 55.675 122.164 55.675C123.26 55.675 124.322 55.8383 125.349 56.165C126.375 56.4683 127.215 56.9933 127.869 57.74C128.522 58.4867 128.849 59.5017 128.849 60.785C128.849 61.1583 128.755 61.4383 128.569 61.625C128.405 61.8117 128.16 61.9633 127.834 62.08C127.834 62.08 127.565 62.1617 127.029 62.325C126.492 62.4883 125.792 62.71 124.929 62.99C124.065 63.2467 123.132 63.5267 122.129 63.83C121.125 64.1333 120.134 64.4367 119.154 64.74C118.174 65.0433 117.31 65.3117 116.564 65.545C116.564 66.4783 116.762 67.3767 117.159 68.24C117.555 69.1033 118.139 69.815 118.909 70.375C119.679 70.9117 120.624 71.18 121.744 71.18C122.7 71.18 123.622 70.9933 124.509 70.62C125.419 70.2467 126.27 69.815 127.064 69.325ZM116.809 64.005C116.855 64.005 116.89 64.005 116.914 64.005C116.96 63.9817 116.995 63.97 117.019 63.97C118.629 63.4567 119.935 63.06 120.939 62.78C121.942 62.4767 122.7 62.2433 123.214 62.08C123.727 61.8933 124.077 61.73 124.264 61.59C124.45 61.4267 124.544 61.2167 124.544 60.96C124.544 60.3533 124.439 59.7583 124.229 59.175C124.019 58.5683 123.68 58.0667 123.214 57.67C122.747 57.2733 122.129 57.075 121.359 57.075C120.425 57.075 119.644 57.3083 119.014 57.775C118.384 58.2183 117.894 58.79 117.544 59.49C117.194 60.19 116.937 60.9367 116.774 61.73C116.634 62.5 116.564 63.2 116.564 63.83C116.564 63.9467 116.645 64.005 116.809 64.005ZM137.03 59.77C137.03 60.7967 137.03 61.9517 137.03 63.235C137.054 64.5183 137.077 65.7783 137.1 67.015C137.147 68.2517 137.182 69.325 137.205 70.235C137.252 71.145 137.31 71.74 137.38 72.02L133.53 73.14L133.11 72.895C133.134 72.2183 133.157 71.4367 133.18 70.55C133.204 69.64 133.227 68.73 133.25 67.82C133.274 66.91 133.285 66.07 133.285 65.3C133.309 64.5067 133.32 63.865 133.32 63.375C133.344 62.885 133.355 62.64 133.355 62.64C133.355 61.8933 133.344 61.1817 133.32 60.505C133.297 59.8283 133.192 59.28 133.005 58.86C132.819 58.4167 132.492 58.195 132.025 58.195C131.792 58.195 131.512 58.2767 131.185 58.44C130.859 58.58 130.544 58.7433 130.24 58.93C129.96 59.1167 129.739 59.2567 129.575 59.35L128.945 58.51C129.482 58.0667 130.065 57.6233 130.695 57.18C131.325 56.7367 131.967 56.3633 132.62 56.06C133.297 55.7567 133.962 55.605 134.615 55.605C135.525 55.605 136.12 55.8617 136.4 56.375C136.704 56.865 136.879 57.4133 136.925 58.02L137.345 58.16C138.372 57.53 139.492 56.97 140.705 56.48C141.942 55.9667 143.144 55.71 144.31 55.71C145.29 55.71 146.025 55.8967 146.515 56.27C147.005 56.6433 147.344 57.18 147.53 57.88C147.717 58.5567 147.81 59.3733 147.81 60.33C147.834 61.2633 147.845 62.3017 147.845 63.445C147.845 63.9817 147.822 64.5767 147.775 65.23C147.752 65.8833 147.74 66.49 147.74 67.05C147.74 68.0533 147.787 68.695 147.88 68.975C147.997 69.2317 148.137 69.43 148.3 69.57C148.534 69.8033 148.86 69.92 149.28 69.92C149.724 69.92 150.132 69.8267 150.505 69.64C150.902 69.4533 151.275 69.2433 151.625 69.01H152.045L152.43 69.605C151.917 70.1183 151.345 70.6667 150.715 71.25C150.109 71.8333 149.479 72.335 148.825 72.755C148.172 73.1517 147.519 73.35 146.865 73.35C146.119 73.35 145.489 73.1167 144.975 72.65C144.625 72.3233 144.392 71.8567 144.275 71.25C144.182 70.6433 144.135 69.815 144.135 68.765C144.159 67.6917 144.17 66.3033 144.17 64.6C144.17 63.9233 144.159 63.1883 144.135 62.395C144.112 61.5783 144.03 60.8317 143.89 60.155C143.774 59.4783 143.552 59 143.225 58.72C142.969 58.4633 142.665 58.3117 142.315 58.265C141.965 58.195 141.615 58.16 141.265 58.16C140.752 58.16 140.075 58.3467 139.235 58.72C138.419 59.07 137.684 59.42 137.03 59.77ZM160.068 59.77C160.068 60.7967 160.068 61.9517 160.068 63.235C160.091 64.5183 160.114 65.7783 160.138 67.015C160.184 68.2517 160.219 69.325 160.243 70.235C160.289 71.145 160.348 71.74 160.418 72.02L156.568 73.14L156.148 72.895C156.171 72.2183 156.194 71.4367 156.218 70.55C156.241 69.64 156.264 68.73 156.288 67.82C156.311 66.91 156.323 66.07 156.323 65.3C156.346 64.5067 156.358 63.865 156.358 63.375C156.381 62.885 156.393 62.64 156.393 62.64C156.393 61.8933 156.381 61.1817 156.358 60.505C156.334 59.8283 156.229 59.28 156.043 58.86C155.856 58.4167 155.529 58.195 155.063 58.195C154.829 58.195 154.549 58.2767 154.223 58.44C153.896 58.58 153.581 58.7433 153.278 58.93C152.998 59.1167 152.776 59.2567 152.613 59.35L151.983 58.51C152.519 58.0667 153.103 57.6233 153.733 57.18C154.363 56.7367 155.004 56.3633 155.658 56.06C156.334 55.7567 156.999 55.605 157.653 55.605C158.563 55.605 159.158 55.8617 159.438 56.375C159.741 56.865 159.916 57.4133 159.963 58.02L160.383 58.16C161.409 57.53 162.529 56.97 163.743 56.48C164.979 55.9667 166.181 55.71 167.348 55.71C168.328 55.71 169.063 55.8967 169.553 56.27C170.043 56.6433 170.381 57.18 170.568 57.88C170.754 58.5567 170.848 59.3733 170.848 60.33C170.871 61.2633 170.883 62.3017 170.883 63.445C170.883 63.9817 170.859 64.5767 170.813 65.23C170.789 65.8833 170.778 66.49 170.778 67.05C170.778 68.0533 170.824 68.695 170.918 68.975C171.034 69.2317 171.174 69.43 171.338 69.57C171.571 69.8033 171.898 69.92 172.318 69.92C172.761 69.92 173.169 69.8267 173.543 69.64C173.939 69.4533 174.313 69.2433 174.663 69.01H175.083L175.468 69.605C174.954 70.1183 174.383 70.6667 173.753 71.25C173.146 71.8333 172.516 72.335 171.863 72.755C171.209 73.1517 170.556 73.35 169.903 73.35C169.156 73.35 168.526 73.1167 168.013 72.65C167.663 72.3233 167.429 71.8567 167.313 71.25C167.219 70.6433 167.173 69.815 167.173 68.765C167.196 67.6917 167.208 66.3033 167.208 64.6C167.208 63.9233 167.196 63.1883 167.173 62.395C167.149 61.5783 167.068 60.8317 166.928 60.155C166.811 59.4783 166.589 59 166.263 58.72C166.006 58.4633 165.703 58.3117 165.353 58.265C165.003 58.195 164.653 58.16 164.303 58.16C163.789 58.16 163.113 58.3467 162.273 58.72C161.456 59.07 160.721 59.42 160.068 59.77ZM178.765 51.265C178.765 50.635 178.986 50.0983 179.43 49.655C179.896 49.1883 180.445 48.955 181.075 48.955C181.705 48.955 182.241 49.1883 182.685 49.655C183.151 50.0983 183.385 50.635 183.385 51.265C183.385 51.895 183.151 52.4433 182.685 52.91C182.241 53.3533 181.705 53.575 181.075 53.575C180.445 53.575 179.896 53.3533 179.43 52.91C178.986 52.4433 178.765 51.895 178.765 51.265ZM186.85 68.835L187.445 69.395V69.78C187.001 70.3167 186.488 70.8767 185.905 71.46C185.321 72.02 184.691 72.4983 184.015 72.895C183.361 73.2683 182.685 73.455 181.985 73.455C181.565 73.455 181.168 73.3617 180.795 73.175C180.421 73.0117 180.118 72.7783 179.885 72.475C179.581 72.055 179.383 71.5417 179.29 70.935C179.196 70.3283 179.161 69.4883 179.185 68.415C179.208 67.3183 179.22 65.8833 179.22 64.11V60.015C179.196 59.6417 179.103 59.2683 178.94 58.895C178.8 58.4983 178.485 58.3 177.995 58.3C177.621 58.3 177.225 58.4167 176.805 58.65C176.408 58.86 176 59.1167 175.58 59.42L175.02 58.65C175.556 58.2067 176.14 57.7633 176.77 57.32C177.423 56.8767 178.088 56.5033 178.765 56.2C179.441 55.8967 180.118 55.745 180.795 55.745C181.145 55.745 181.483 55.815 181.81 55.955C182.136 56.0717 182.381 56.27 182.545 56.55C182.685 56.7833 182.79 57.075 182.86 57.425C182.93 57.775 182.965 58.4633 182.965 59.49C182.965 60.19 182.941 60.9017 182.895 61.625C182.871 62.325 182.86 63.025 182.86 63.725C182.86 65.1483 182.848 66.3617 182.825 67.365C182.825 68.3683 182.93 69.1383 183.14 69.675C183.35 70.2117 183.758 70.48 184.365 70.48C184.785 70.48 185.216 70.2933 185.66 69.92C186.103 69.5467 186.5 69.185 186.85 68.835ZM202.276 64.74C202.276 63.3633 202.253 61.9983 202.206 60.645C202.183 59.2917 202.136 57.9733 202.066 56.69L205.671 55.5L206.091 55.85C206.021 57.4367 205.974 59.0233 205.951 60.61C205.928 62.1967 205.916 63.795 205.916 65.405C205.916 65.6383 205.904 66 205.881 66.49C205.858 66.98 205.869 67.4817 205.916 67.995C205.963 68.5083 206.091 68.9517 206.301 69.325C206.511 69.675 206.861 69.85 207.351 69.85C207.701 69.85 208.086 69.745 208.506 69.535C208.949 69.325 209.358 69.1033 209.731 68.87H210.081L210.361 69.57C209.871 70.06 209.311 70.5967 208.681 71.18C208.051 71.7633 207.409 72.265 206.756 72.685C206.126 73.0817 205.508 73.28 204.901 73.28C204.084 73.28 203.489 73.0467 203.116 72.58C202.743 72.09 202.498 71.5183 202.381 70.865L202.031 70.655C201.354 71.005 200.619 71.39 199.826 71.81C199.056 72.2067 198.298 72.5567 197.551 72.86C196.804 73.14 196.104 73.28 195.451 73.28C194.798 73.28 194.179 73.1867 193.596 73C193.036 72.8367 192.523 72.545 192.056 72.125C191.473 71.5883 191.158 70.83 191.111 69.85C191.064 68.8467 191.041 67.5167 191.041 65.86C191.041 65.4633 191.041 65.0783 191.041 64.705C191.064 64.3083 191.076 63.935 191.076 63.585C191.076 62.675 191.076 61.8233 191.076 61.03C191.076 60.2133 190.983 59.56 190.796 59.07C190.609 58.5567 190.248 58.3 189.711 58.3C189.408 58.3 189.058 58.4167 188.661 58.65C188.264 58.86 187.903 59.0583 187.576 59.245L187.086 58.37C187.623 57.9733 188.194 57.565 188.801 57.145C189.408 56.725 190.026 56.375 190.656 56.095C191.286 55.7917 191.893 55.64 192.476 55.64C193.223 55.64 193.783 55.8033 194.156 56.13C194.553 56.4333 194.809 56.8417 194.926 57.355C195.066 57.845 195.136 58.3817 195.136 58.965C195.136 59.6883 195.089 60.6217 194.996 61.765C194.926 62.9083 194.891 64.0167 194.891 65.09C194.891 66.2567 194.961 67.26 195.101 68.1C195.264 68.94 195.579 69.5817 196.046 70.025C196.536 70.4683 197.271 70.69 198.251 70.69C199.068 70.69 199.791 70.5267 200.421 70.2C201.051 69.85 201.658 69.4533 202.241 69.01C202.264 68.3333 202.276 67.6333 202.276 66.91C202.276 66.1867 202.276 65.4633 202.276 64.74ZM218.176 59.595C218.176 60.645 218.176 61.8117 218.176 63.095C218.176 64.3783 218.188 65.65 218.211 66.91C218.235 68.1467 218.258 69.2433 218.281 70.2C218.305 71.1333 218.34 71.7633 218.386 72.09L214.851 73.28L214.256 73C214.303 72.1833 214.338 71.2733 214.361 70.27C214.385 69.2667 214.408 68.275 214.431 67.295C214.455 66.2917 214.466 65.3933 214.466 64.6C214.49 63.8067 214.501 63.2233 214.501 62.85C214.501 62.0567 214.478 61.3217 214.431 60.645C214.408 59.9683 214.303 59.42 214.116 59C213.93 58.5567 213.603 58.335 213.136 58.335C212.74 58.335 212.32 58.4517 211.876 58.685C211.433 58.895 211.013 59.1283 210.616 59.385L209.951 58.545C210.768 57.915 211.666 57.2967 212.646 56.69C213.626 56.0833 214.595 55.78 215.551 55.78C216.391 55.78 216.998 56.0017 217.371 56.445C217.768 56.8883 217.99 57.4133 218.036 58.02L218.386 58.125C219.343 57.5417 220.416 56.9933 221.606 56.48C222.82 55.9433 223.998 55.675 225.141 55.675C225.958 55.675 226.705 55.885 227.381 56.305C228.081 56.725 228.548 57.355 228.781 58.195L229.306 58.37C230.38 57.7633 231.465 57.1683 232.561 56.585C233.658 56.0017 234.79 55.71 235.956 55.71C236.913 55.71 237.671 55.8967 238.231 56.27C238.815 56.62 239.235 57.25 239.491 58.16C239.748 59.0467 239.876 60.3183 239.876 61.975C239.876 62.465 239.865 63.06 239.841 63.76C239.818 64.46 239.795 65.16 239.771 65.86C239.748 66.5367 239.736 67.12 239.736 67.61C239.736 68.1233 239.818 68.625 239.981 69.115C240.168 69.5817 240.565 69.815 241.171 69.815C241.615 69.815 242.023 69.745 242.396 69.605C242.77 69.4417 243.131 69.2433 243.481 69.01H243.831L244.216 69.745C243.726 70.2117 243.166 70.725 242.536 71.285C241.93 71.8217 241.288 72.2883 240.611 72.685C239.935 73.0583 239.246 73.245 238.546 73.245C238.126 73.245 237.718 73.14 237.321 72.93C236.925 72.72 236.598 72.3117 236.341 71.705C236.085 71.0983 235.956 70.2 235.956 69.01C235.956 68.1233 235.98 67.1433 236.026 66.07C236.073 64.9733 236.096 63.9817 236.096 63.095C236.096 62.605 236.085 62.0683 236.061 61.485C236.038 60.8783 235.956 60.3067 235.816 59.77C235.7 59.2333 235.466 58.79 235.116 58.44C234.766 58.09 234.253 57.915 233.576 57.915C232.83 57.915 232.025 58.16 231.161 58.65C230.298 59.14 229.528 59.6183 228.851 60.085C228.851 61.135 228.851 62.2317 228.851 63.375C228.851 64.5183 228.863 65.65 228.886 66.77C228.91 67.89 228.933 68.9167 228.956 69.85C228.98 70.76 229.015 71.5067 229.061 72.09L225.596 73.315L225.036 73.035C225.106 71.3083 225.141 69.605 225.141 67.925C225.165 66.245 225.176 64.565 225.176 62.885C225.176 62.395 225.165 61.8583 225.141 61.275C225.141 60.6917 225.071 60.1433 224.931 59.63C224.791 59.1167 224.546 58.6967 224.196 58.37C223.87 58.02 223.391 57.845 222.761 57.845C221.968 57.845 221.163 58.0433 220.346 58.44C219.53 58.8133 218.806 59.1983 218.176 59.595Z" fill="white"/>
</g>
<defs>
<clipPath id="clip0_1_13">
<rect width="291" height="103" fill="white"/>
</clipPath>
</defs>
</svg>
