<svg width="316" height="154" viewBox="0 0 316 154" fill="none" xmlns="http://www.w3.org/2000/svg">
<g clip-path="url(#clip0_1_13)">
<path d="M0 91C26.5017 63.7291 51.0762 56.193 109 54" stroke="white" stroke-width="2"/>
<path d="M0 77C19.9371 48.992 38.4243 41.2522 82 39" stroke="white" stroke-width="2"/>
<path d="M291 86C271.063 114.008 252.576 121.748 209 124" stroke="white" stroke-width="2"/>
<path d="M45.6361 84.345L43.5711 102.09L40.6311 103.07L40.1411 102.895L42.7661 90.4C42.9761 89.4433 43.1745 88.44 43.3611 87.39C43.5711 86.34 43.7461 85.325 43.8861 84.345C44.0261 83.365 44.0961 82.5133 44.0961 81.79C44.0961 81.2067 43.8395 80.7167 43.3261 80.32C42.8128 79.9 41.9028 79.655 40.5961 79.585V78.745L40.8761 78.465H48.7511C49.8945 81.6383 51.0961 84.7883 52.3561 87.915C53.6161 91.0183 55.0161 94.0983 56.5561 97.155C56.6028 97.2483 56.6728 97.295 56.7661 97.295C56.8361 97.295 56.9178 97.2483 57.0111 97.155C57.4311 96.4783 57.8861 95.7083 58.3761 94.845C58.8895 93.9817 59.3911 93.1183 59.8811 92.255C60.3945 91.3917 60.8611 90.5983 61.2811 89.875C61.7011 89.1283 62.0395 88.5333 62.2961 88.09C62.5528 87.6233 62.6811 87.39 62.6811 87.39C63.4511 85.9433 64.1861 84.4967 64.8861 83.05C65.5861 81.6033 66.1695 80.11 66.6361 78.57L72.3061 78.5L72.5161 78.92L71.8511 79.62C71.6878 79.7833 71.5828 80.0517 71.5361 80.425C71.5128 80.775 71.5011 81.3583 71.5011 82.175V87.285C71.5011 88.8483 71.5361 90.4 71.6061 91.94C71.6995 93.48 71.8161 95.02 71.9561 96.56C72.0495 97.4 72.1428 98.17 72.2361 98.87C72.3528 99.5467 72.5628 100.095 72.8661 100.515C73.1695 100.912 73.6478 101.11 74.3011 101.11C74.6278 101.11 74.9778 101.098 75.3511 101.075C75.7478 101.028 76.0745 100.993 76.3311 100.97L76.4711 101.915C76.3311 101.915 75.9695 101.997 75.3861 102.16C74.8028 102.323 74.1261 102.522 73.3561 102.755C72.5861 102.965 71.8511 103.152 71.1511 103.315C70.4511 103.478 69.9261 103.56 69.5761 103.56C68.8995 103.56 68.3861 103.362 68.0361 102.965C67.7095 102.568 67.5461 102.137 67.5461 101.67C67.5461 101.157 67.5461 100.375 67.5461 99.325C67.5461 98.275 67.5345 97.085 67.5111 95.755C67.5111 94.425 67.4878 93.0717 67.4411 91.695C67.4178 90.3183 67.3711 89.0467 67.3011 87.88C67.2545 86.7133 67.1845 85.7683 67.0911 85.045C66.9978 84.3217 66.8811 83.96 66.7411 83.96C66.6945 83.96 66.5895 84.0883 66.4261 84.345C64.5361 87.4483 62.7628 90.54 61.1061 93.62C59.4728 96.6767 57.8161 99.815 56.1361 103.035H53.5461C52.4028 99.8383 51.2478 96.7117 50.0811 93.655C48.9145 90.575 47.6311 87.4833 46.2311 84.38C46.1611 84.2167 46.0561 84.135 45.9161 84.135C45.7295 84.135 45.6361 84.205 45.6361 84.345ZM80.2588 81.265C80.2588 80.635 80.4805 80.0983 80.9238 79.655C81.3905 79.1883 81.9388 78.955 82.5688 78.955C83.1988 78.955 83.7355 79.1883 84.1788 79.655C84.6455 80.0983 84.8788 80.635 84.8788 81.265C84.8788 81.895 84.6455 82.4433 84.1788 82.91C83.7355 83.3533 83.1988 83.575 82.5688 83.575C81.9388 83.575 81.3905 83.3533 80.9238 82.91C80.4805 82.4433 80.2588 81.895 80.2588 81.265ZM88.3438 98.835L88.9388 99.395V99.78C88.4955 100.317 87.9821 100.877 87.3988 101.46C86.8155 102.02 86.1855 102.498 85.5088 102.895C84.8555 103.268 84.1788 103.455 83.4788 103.455C83.0588 103.455 82.6621 103.362 82.2888 103.175C81.9155 103.012 81.6121 102.778 81.3788 102.475C81.0755 102.055 80.8771 101.542 80.7838 100.935C80.6905 100.328 80.6555 99.4883 80.6788 98.415C80.7021 97.3183 80.7138 95.8833 80.7138 94.11V90.015C80.6905 89.6417 80.5971 89.2683 80.4338 88.895C80.2938 88.4983 79.9788 88.3 79.4888 88.3C79.1155 88.3 78.7188 88.4167 78.2988 88.65C77.9021 88.86 77.4938 89.1167 77.0738 89.42L76.5138 88.65C77.0505 88.2067 77.6338 87.7633 78.2638 87.32C78.9171 86.8767 79.5821 86.5033 80.2588 86.2C80.9355 85.8967 81.6121 85.745 82.2888 85.745C82.6388 85.745 82.9771 85.815 83.3038 85.955C83.6305 86.0717 83.8755 86.27 84.0388 86.55C84.1788 86.7833 84.2838 87.075 84.3538 87.425C84.4238 87.775 84.4588 88.4633 84.4588 89.49C84.4588 90.19 84.4355 90.9017 84.3888 91.625C84.3655 92.325 84.3538 93.025 84.3538 93.725C84.3538 95.1483 84.3421 96.3617 84.3188 97.365C84.3188 98.3683 84.4238 99.1383 84.6338 99.675C84.8438 100.212 85.2521 100.48 85.8588 100.48C86.2788 100.48 86.7105 100.293 87.1538 99.92C87.5971 99.5467 87.9938 99.185 88.3438 98.835ZM95.16 78.605L95.615 79.025L95.335 94.915C95.335 95.1483 95.3234 95.3933 95.3 95.65C95.3 95.9067 95.3 96.1633 95.3 96.42C95.3 97.6567 95.37 98.6133 95.51 99.29C95.6734 99.9433 96.0467 100.27 96.63 100.27C97.12 100.27 97.5867 100.107 98.03 99.78C98.4734 99.43 98.87 99.0683 99.22 98.695H99.64L100.2 99.255C99.7567 99.8383 99.2317 100.445 98.625 101.075C98.0417 101.682 97.4 102.195 96.7 102.615C96 103.035 95.265 103.245 94.495 103.245C93.4917 103.245 92.78 103.012 92.36 102.545C91.9634 102.078 91.7184 101.495 91.625 100.795C91.555 100.095 91.52 99.3833 91.52 98.66C91.52 97.33 91.5434 95.9883 91.59 94.635C91.6367 93.2817 91.66 91.8933 91.66 90.47C91.66 89.49 91.66 88.4983 91.66 87.495C91.66 86.4917 91.6484 85.5117 91.625 84.555C91.6017 84.0417 91.5784 83.4817 91.555 82.875C91.555 82.2683 91.52 81.8133 91.45 81.51C91.31 80.9033 90.9367 80.5533 90.33 80.46C89.7234 80.3667 89.0467 80.3083 88.3 80.285V79.48L88.72 79.2L95.16 78.605ZM106.439 78.605L106.894 79.025L106.614 94.915C106.614 95.1483 106.603 95.3933 106.579 95.65C106.579 95.9067 106.579 96.1633 106.579 96.42C106.579 97.6567 106.649 98.6133 106.789 99.29C106.953 99.9433 107.326 100.27 107.909 100.27C108.399 100.27 108.866 100.107 109.309 99.78C109.753 99.43 110.149 99.0683 110.499 98.695H110.919L111.479 99.255C111.036 99.8383 110.511 100.445 109.904 101.075C109.321 101.682 108.679 102.195 107.979 102.615C107.279 103.035 106.544 103.245 105.774 103.245C104.771 103.245 104.059 103.012 103.639 102.545C103.243 102.078 102.998 101.495 102.904 100.795C102.834 100.095 102.799 99.3833 102.799 98.66C102.799 97.33 102.823 95.9883 102.869 94.635C102.916 93.2817 102.939 91.8933 102.939 90.47C102.939 89.49 102.939 88.4983 102.939 87.495C102.939 86.4917 102.928 85.5117 102.904 84.555C102.881 84.0417 102.858 83.4817 102.834 82.875C102.834 82.2683 102.799 81.8133 102.729 81.51C102.589 80.9033 102.216 80.5533 101.609 80.46C101.003 80.3667 100.326 80.3083 99.5793 80.285V79.48L99.9993 79.2L106.439 78.605ZM127.064 99.325L127.589 99.465L127.974 100.13C127.204 100.69 126.375 101.238 125.489 101.775C124.625 102.288 123.727 102.708 122.794 103.035C121.86 103.385 120.915 103.56 119.959 103.56C118.955 103.56 117.964 103.42 116.984 103.14C116.027 102.883 115.199 102.428 114.499 101.775C113.659 101.005 113.087 100.095 112.784 99.045C112.504 97.995 112.364 96.9333 112.364 95.86C112.364 94.5767 112.562 93.3283 112.959 92.115C113.355 90.9017 113.962 89.8167 114.779 88.86C115.595 87.88 116.61 87.11 117.824 86.55C119.06 85.9667 120.507 85.675 122.164 85.675C123.26 85.675 124.322 85.8383 125.349 86.165C126.375 86.4683 127.215 86.9933 127.869 87.74C128.522 88.4867 128.849 89.5017 128.849 90.785C128.849 91.1583 128.755 91.4383 128.569 91.625C128.405 91.8117 128.16 91.9633 127.834 92.08C127.834 92.08 127.565 92.1617 127.029 92.325C126.492 92.4883 125.792 92.71 124.929 92.99C124.065 93.2467 123.132 93.5267 122.129 93.83C121.125 94.1333 120.134 94.4367 119.154 94.74C118.174 95.0433 117.31 95.3117 116.564 95.545C116.564 96.4783 116.762 97.3767 117.159 98.24C117.555 99.1033 118.139 99.815 118.909 100.375C119.679 100.912 120.624 101.18 121.744 101.18C122.7 101.18 123.622 100.993 124.509 100.62C125.419 100.247 126.27 99.815 127.064 99.325ZM116.809 94.005C116.855 94.005 116.89 94.005 116.914 94.005C116.96 93.9817 116.995 93.97 117.019 93.97C118.629 93.4567 119.935 93.06 120.939 92.78C121.942 92.4767 122.7 92.2433 123.214 92.08C123.727 91.8933 124.077 91.73 124.264 91.59C124.45 91.4267 124.544 91.2167 124.544 90.96C124.544 90.3533 124.439 89.7583 124.229 89.175C124.019 88.5683 123.68 88.0667 123.214 87.67C122.747 87.2733 122.129 87.075 121.359 87.075C120.425 87.075 119.644 87.3083 119.014 87.775C118.384 88.2183 117.894 88.79 117.544 89.49C117.194 90.19 116.937 90.9367 116.774 91.73C116.634 92.5 116.564 93.2 116.564 93.83C116.564 93.9467 116.645 94.005 116.809 94.005ZM137.03 89.77C137.03 90.7967 137.03 91.9517 137.03 93.235C137.054 94.5183 137.077 95.7783 137.1 97.015C137.147 98.2517 137.182 99.325 137.205 100.235C137.252 101.145 137.31 101.74 137.38 102.02L133.53 103.14L133.11 102.895C133.134 102.218 133.157 101.437 133.18 100.55C133.204 99.64 133.227 98.73 133.25 97.82C133.274 96.91 133.285 96.07 133.285 95.3C133.309 94.5067 133.32 93.865 133.32 93.375C133.344 92.885 133.355 92.64 133.355 92.64C133.355 91.8933 133.344 91.1817 133.32 90.505C133.297 89.8283 133.192 89.28 133.005 88.86C132.819 88.4167 132.492 88.195 132.025 88.195C131.792 88.195 131.512 88.2767 131.185 88.44C130.859 88.58 130.544 88.7433 130.24 88.93C129.96 89.1167 129.739 89.2567 129.575 89.35L128.945 88.51C129.482 88.0667 130.065 87.6233 130.695 87.18C131.325 86.7367 131.967 86.3633 132.62 86.06C133.297 85.7567 133.962 85.605 134.615 85.605C135.525 85.605 136.12 85.8617 136.4 86.375C136.704 86.865 136.879 87.4133 136.925 88.02L137.345 88.16C138.372 87.53 139.492 86.97 140.705 86.48C141.942 85.9667 143.144 85.71 144.31 85.71C145.29 85.71 146.025 85.8967 146.515 86.27C147.005 86.6433 147.344 87.18 147.53 87.88C147.717 88.5567 147.81 89.3733 147.81 90.33C147.834 91.2633 147.845 92.3017 147.845 93.445C147.845 93.9817 147.822 94.5767 147.775 95.23C147.752 95.8833 147.74 96.49 147.74 97.05C147.74 98.0533 147.787 98.695 147.88 98.975C147.997 99.2317 148.137 99.43 148.3 99.57C148.534 99.8033 148.86 99.92 149.28 99.92C149.724 99.92 150.132 99.8267 150.505 99.64C150.902 99.4533 151.275 99.2433 151.625 99.01H152.045L152.43 99.605C151.917 100.118 151.345 100.667 150.715 101.25C150.109 101.833 149.479 102.335 148.825 102.755C148.172 103.152 147.519 103.35 146.865 103.35C146.119 103.35 145.489 103.117 144.975 102.65C144.625 102.323 144.392 101.857 144.275 101.25C144.182 100.643 144.135 99.815 144.135 98.765C144.159 97.6917 144.17 96.3033 144.17 94.6C144.17 93.9233 144.159 93.1883 144.135 92.395C144.112 91.5783 144.03 90.8317 143.89 90.155C143.774 89.4783 143.552 89 143.225 88.72C142.969 88.4633 142.665 88.3117 142.315 88.265C141.965 88.195 141.615 88.16 141.265 88.16C140.752 88.16 140.075 88.3467 139.235 88.72C138.419 89.07 137.684 89.42 137.03 89.77ZM160.068 89.77C160.068 90.7967 160.068 91.9517 160.068 93.235C160.091 94.5183 160.114 95.7783 160.138 97.015C160.184 98.2517 160.219 99.325 160.243 100.235C160.289 101.145 160.348 101.74 160.418 102.02L156.568 103.14L156.148 102.895C156.171 102.218 156.194 101.437 156.218 100.55C156.241 99.64 156.264 98.73 156.288 97.82C156.311 96.91 156.323 96.07 156.323 95.3C156.346 94.5067 156.358 93.865 156.358 93.375C156.381 92.885 156.393 92.64 156.393 92.64C156.393 91.8933 156.381 91.1817 156.358 90.505C156.334 89.8283 156.229 89.28 156.043 88.86C155.856 88.4167 155.529 88.195 155.063 88.195C154.829 88.195 154.549 88.2767 154.223 88.44C153.896 88.58 153.581 88.7433 153.278 88.93C152.998 89.1167 152.776 89.2567 152.613 89.35L151.983 88.51C152.519 88.0667 153.103 87.6233 153.733 87.18C154.363 86.7367 155.004 86.3633 155.658 86.06C156.334 85.7567 156.999 85.605 157.653 85.605C158.563 85.605 159.158 85.8617 159.438 86.375C159.741 86.865 159.916 87.4133 159.963 88.02L160.383 88.16C161.409 87.53 162.529 86.97 163.743 86.48C164.979 85.9667 166.181 85.71 167.348 85.71C168.328 85.71 169.063 85.8967 169.553 86.27C170.043 86.6433 170.381 87.18 170.568 87.88C170.754 88.5567 170.848 89.3733 170.848 90.33C170.871 91.2633 170.883 92.3017 170.883 93.445C170.883 93.9817 170.859 94.5767 170.813 95.23C170.789 95.8833 170.778 96.49 170.778 97.05C170.778 98.0533 170.824 98.695 170.918 98.975C171.034 99.2317 171.174 99.43 171.338 99.57C171.571 99.8033 171.898 99.92 172.318 99.92C172.761 99.92 173.169 99.8267 173.543 99.64C173.939 99.4533 174.313 99.2433 174.663 99.01H175.083L175.468 99.605C174.954 100.118 174.383 100.667 173.753 101.25C173.146 101.833 172.516 102.335 171.863 102.755C171.209 103.152 170.556 103.35 169.903 103.35C169.156 103.35 168.526 103.117 168.013 102.65C167.663 102.323 167.429 101.857 167.313 101.25C167.219 100.643 167.173 99.815 167.173 98.765C167.196 97.6917 167.208 96.3033 167.208 94.6C167.208 93.9233 167.196 93.1883 167.173 92.395C167.149 91.5783 167.068 90.8317 166.928 90.155C166.811 89.4783 166.589 89 166.263 88.72C166.006 88.4633 165.703 88.3117 165.353 88.265C165.003 88.195 164.653 88.16 164.303 88.16C163.789 88.16 163.113 88.3467 162.273 88.72C161.456 89.07 160.721 89.42 160.068 89.77ZM178.765 81.265C178.765 80.635 178.986 80.0983 179.43 79.655C179.896 79.1883 180.445 78.955 181.075 78.955C181.705 78.955 182.241 79.1883 182.685 79.655C183.151 80.0983 183.385 80.635 183.385 81.265C183.385 81.895 183.151 82.4433 182.685 82.91C182.241 83.3533 181.705 83.575 181.075 83.575C180.445 83.575 179.896 83.3533 179.43 82.91C178.986 82.4433 178.765 81.895 178.765 81.265ZM186.85 98.835L187.445 99.395V99.78C187.001 100.317 186.488 100.877 185.905 101.46C185.321 102.02 184.691 102.498 184.015 102.895C183.361 103.268 182.685 103.455 181.985 103.455C181.565 103.455 181.168 103.362 180.795 103.175C180.421 103.012 180.118 102.778 179.885 102.475C179.581 102.055 179.383 101.542 179.29 100.935C179.196 100.328 179.161 99.4883 179.185 98.415C179.208 97.3183 179.22 95.8833 179.22 94.11V90.015C179.196 89.6417 179.103 89.2683 178.94 88.895C178.8 88.4983 178.485 88.3 177.995 88.3C177.621 88.3 177.225 88.4167 176.805 88.65C176.408 88.86 176 89.1167 175.58 89.42L175.02 88.65C175.556 88.2067 176.14 87.7633 176.77 87.32C177.423 86.8767 178.088 86.5033 178.765 86.2C179.441 85.8967 180.118 85.745 180.795 85.745C181.145 85.745 181.483 85.815 181.81 85.955C182.136 86.0717 182.381 86.27 182.545 86.55C182.685 86.7833 182.79 87.075 182.86 87.425C182.93 87.775 182.965 88.4633 182.965 89.49C182.965 90.19 182.941 90.9017 182.895 91.625C182.871 92.325 182.86 93.025 182.86 93.725C182.86 95.1483 182.848 96.3617 182.825 97.365C182.825 98.3683 182.93 99.1383 183.14 99.675C183.35 100.212 183.758 100.48 184.365 100.48C184.785 100.48 185.216 100.293 185.66 99.92C186.103 99.5467 186.5 99.185 186.85 98.835ZM202.276 94.74C202.276 93.3633 202.253 91.9983 202.206 90.645C202.183 89.2917 202.136 87.9733 202.066 86.69L205.671 85.5L206.091 85.85C206.021 87.4367 205.974 89.0233 205.951 90.61C205.928 92.1967 205.916 93.795 205.916 95.405C205.916 95.6383 205.904 96 205.881 96.49C205.858 96.98 205.869 97.4817 205.916 97.995C205.963 98.5083 206.091 98.9517 206.301 99.325C206.511 99.675 206.861 99.85 207.351 99.85C207.701 99.85 208.086 99.745 208.506 99.535C208.949 99.325 209.358 99.1033 209.731 98.87H210.081L210.361 99.57C209.871 100.06 209.311 100.597 208.681 101.18C208.051 101.763 207.409 102.265 206.756 102.685C206.126 103.082 205.508 103.28 204.901 103.28C204.084 103.28 203.489 103.047 203.116 102.58C202.743 102.09 202.498 101.518 202.381 100.865L202.031 100.655C201.354 101.005 200.619 101.39 199.826 101.81C199.056 102.207 198.298 102.557 197.551 102.86C196.804 103.14 196.104 103.28 195.451 103.28C194.798 103.28 194.179 103.187 193.596 103C193.036 102.837 192.523 102.545 192.056 102.125C191.473 101.588 191.158 100.83 191.111 99.85C191.064 98.8467 191.041 97.5167 191.041 95.86C191.041 95.4633 191.041 95.0783 191.041 94.705C191.064 94.3083 191.076 93.935 191.076 93.585C191.076 92.675 191.076 91.8233 191.076 91.03C191.076 90.2133 190.983 89.56 190.796 89.07C190.609 88.5567 190.248 88.3 189.711 88.3C189.408 88.3 189.058 88.4167 188.661 88.65C188.264 88.86 187.903 89.0583 187.576 89.245L187.086 88.37C187.623 87.9733 188.194 87.565 188.801 87.145C189.408 86.725 190.026 86.375 190.656 86.095C191.286 85.7917 191.893 85.64 192.476 85.64C193.223 85.64 193.783 85.8033 194.156 86.13C194.553 86.4333 194.809 86.8417 194.926 87.355C195.066 87.845 195.136 88.3817 195.136 88.965C195.136 89.6883 195.089 90.6217 194.996 91.765C194.926 92.9083 194.891 94.0167 194.891 95.09C194.891 96.2567 194.961 97.26 195.101 98.1C195.264 98.94 195.579 99.5817 196.046 100.025C196.536 100.468 197.271 100.69 198.251 100.69C199.068 100.69 199.791 100.527 200.421 100.2C201.051 99.85 201.658 99.4533 202.241 99.01C202.264 98.3333 202.276 97.6333 202.276 96.91C202.276 96.1867 202.276 95.4633 202.276 94.74ZM218.176 89.595C218.176 90.645 218.176 91.8117 218.176 93.095C218.176 94.3783 218.188 95.65 218.211 96.91C218.235 98.1467 218.258 99.2433 218.281 100.2C218.305 101.133 218.34 101.763 218.386 102.09L214.851 103.28L214.256 103C214.303 102.183 214.338 101.273 214.361 100.27C214.385 99.2667 214.408 98.275 214.431 97.295C214.455 96.2917 214.466 95.3933 214.466 94.6C214.49 93.8067 214.501 93.2233 214.501 92.85C214.501 92.0567 214.478 91.3217 214.431 90.645C214.408 89.9683 214.303 89.42 214.116 89C213.93 88.5567 213.603 88.335 213.136 88.335C212.74 88.335 212.32 88.4517 211.876 88.685C211.433 88.895 211.013 89.1283 210.616 89.385L209.951 88.545C210.768 87.915 211.666 87.2967 212.646 86.69C213.626 86.0833 214.595 85.78 215.551 85.78C216.391 85.78 216.998 86.0017 217.371 86.445C217.768 86.8883 217.99 87.4133 218.036 88.02L218.386 88.125C219.343 87.5417 220.416 86.9933 221.606 86.48C222.82 85.9433 223.998 85.675 225.141 85.675C225.958 85.675 226.705 85.885 227.381 86.305C228.081 86.725 228.548 87.355 228.781 88.195L229.306 88.37C230.38 87.7633 231.465 87.1683 232.561 86.585C233.658 86.0017 234.79 85.71 235.956 85.71C236.913 85.71 237.671 85.8967 238.231 86.27C238.815 86.62 239.235 87.25 239.491 88.16C239.748 89.0467 239.876 90.3183 239.876 91.975C239.876 92.465 239.865 93.06 239.841 93.76C239.818 94.46 239.795 95.16 239.771 95.86C239.748 96.5367 239.736 97.12 239.736 97.61C239.736 98.1233 239.818 98.625 239.981 99.115C240.168 99.5817 240.565 99.815 241.171 99.815C241.615 99.815 242.023 99.745 242.396 99.605C242.77 99.4417 243.131 99.2433 243.481 99.01H243.831L244.216 99.745C243.726 100.212 243.166 100.725 242.536 101.285C241.93 101.822 241.288 102.288 240.611 102.685C239.935 103.058 239.246 103.245 238.546 103.245C238.126 103.245 237.718 103.14 237.321 102.93C236.925 102.72 236.598 102.312 236.341 101.705C236.085 101.098 235.956 100.2 235.956 99.01C235.956 98.1233 235.98 97.1433 236.026 96.07C236.073 94.9733 236.096 93.9817 236.096 93.095C236.096 92.605 236.085 92.0683 236.061 91.485C236.038 90.8783 235.956 90.3067 235.816 89.77C235.7 89.2333 235.466 88.79 235.116 88.44C234.766 88.09 234.253 87.915 233.576 87.915C232.83 87.915 232.025 88.16 231.161 88.65C230.298 89.14 229.528 89.6183 228.851 90.085C228.851 91.135 228.851 92.2317 228.851 93.375C228.851 94.5183 228.863 95.65 228.886 96.77C228.91 97.89 228.933 98.9167 228.956 99.85C228.98 100.76 229.015 101.507 229.061 102.09L225.596 103.315L225.036 103.035C225.106 101.308 225.141 99.605 225.141 97.925C225.165 96.245 225.176 94.565 225.176 92.885C225.176 92.395 225.165 91.8583 225.141 91.275C225.141 90.6917 225.071 90.1433 224.931 89.63C224.791 89.1167 224.546 88.6967 224.196 88.37C223.87 88.02 223.391 87.845 222.761 87.845C221.968 87.845 221.163 88.0433 220.346 88.44C219.53 88.8133 218.806 89.1983 218.176 89.595Z" fill="white"/>
</g>
<defs>
<clipPath id="clip0_1_13">
<rect width="316" height="154" fill="white"/>
</clipPath>
</defs>
</svg>
